<svg aria-hidden="true" style="position:absolute;width:0;height:0" xmlns="http://www.w3.org/2000/svg" overflow="hidden"><defs><symbol id="icon-facebook" viewBox="0 0 32 32"><path d="M29 0H3C1.35 0 0 1.35 0 3v26c0 1.65 1.35 3 3 3h13V18h-4v-4h4v-2c0-3.306 2.694-6 6-6h4v4h-4c-1.1 0-2 .9-2 2v2h6l-1 4h-5v14h9c1.65 0 3-1.35 3-3V3c0-1.65-1.35-3-3-3z"/></symbol><symbol id="icon-twitter" viewBox="0 0 32 32"><path d="M32 7.075a12.941 12.941 0 01-3.769 1.031 6.601 6.601 0 002.887-3.631 13.21 13.21 0 01-4.169 1.594A6.565 6.565 0 0022.155 4a6.563 6.563 0 00-6.563 6.563c0 .512.056 1.012.169 1.494A18.635 18.635 0 012.23 5.195a6.56 6.56 0 00-.887 3.3 6.557 6.557 0 002.919 5.463 6.565 6.565 0 01-2.975-.819v.081a6.565 6.565 0 005.269 6.437 6.574 6.574 0 01-2.968.112 6.588 6.588 0 006.131 4.563 13.17 13.17 0 01-9.725 2.719 18.568 18.568 0 0010.069 2.95c12.075 0 18.681-10.006 18.681-18.681 0-.287-.006-.569-.019-.85A13.216 13.216 0 0032 7.076z"/></symbol><symbol id="icon-github" viewBox="0 0 32 32"><path d="M16 .395c-8.836 0-16 7.163-16 16 0 7.069 4.585 13.067 10.942 15.182.8.148 1.094-.347 1.094-.77 0-.381-.015-1.642-.022-2.979-4.452.968-5.391-1.888-5.391-1.888-.728-1.849-1.776-2.341-1.776-2.341-1.452-.993.11-.973.11-.973 1.606.113 2.452 1.649 2.452 1.649 1.427 2.446 3.743 1.739 4.656 1.33.143-1.034.558-1.74 1.016-2.14-3.554-.404-7.29-1.777-7.29-7.907 0-1.747.625-3.174 1.649-4.295-.166-.403-.714-2.03.155-4.234 0 0 1.344-.43 4.401 1.64a15.353 15.353 0 014.005-.539c1.359.006 2.729.184 4.008.539 3.054-2.07 4.395-1.64 4.395-1.64.871 2.204.323 3.831.157 4.234 1.026 1.12 1.647 2.548 1.647 4.295 0 6.145-3.743 7.498-7.306 7.895.574.497 1.085 1.47 1.085 2.963 0 2.141-.019 3.864-.019 4.391 0 .426.288.925 1.099.768C27.421 29.457 32 23.462 32 16.395c0-8.837-7.164-16-16-16z"/></symbol><symbol id="icon-skype" viewBox="0 0 32 32"><path d="M13.3 1.169c-.05-.031-.106-.056-.156-.081-.056.012-.106.019-.162.031l.319.05zM1.15 13.156a1.84 1.84 0 00-.025.162c.031.05.05.1.081.15l-.056-.313zM30.837 18.831c.012-.056.019-.113.031-.169-.031-.05-.05-.1-.081-.15l.05.319zM18.5 30.719c.05.031.106.056.156.081a1.64 1.64 0 01.169-.025l-.325-.056z"/><path d="M30.869 18.663c-.012.056-.019.113-.031.169l-.056-.325c.031.056.056.106.087.156.163-.9.25-1.819.25-2.738a15.067 15.067 0 00-4.426-10.687 15.133 15.133 0 00-4.8-3.237A15.023 15.023 0 0016.012.813c-.963 0-1.925.088-2.863.269h-.006c.05.025.106.05.156.081l-.319-.05c.056-.012.106-.019.162-.031A8.99 8.99 0 008.948.032C6.56.032 4.31.963 2.623 2.651S.004 6.588.004 8.976c0 1.519.394 3.019 1.125 4.338a1.84 1.84 0 00.025-.162l.056.319c-.031-.05-.056-.1-.081-.15-.15.856-.225 1.731-.225 2.606a15.072 15.072 0 004.425 10.681 15.1 15.1 0 004.806 3.238 15.023 15.023 0 008.525.95c-.05-.031-.1-.056-.156-.081l.325.056a1.64 1.64 0 01-.169.025 8.956 8.956 0 004.4 1.163c2.387 0 4.637-.931 6.325-2.619s2.619-3.938 2.619-6.325a9.07 9.07 0 00-1.137-4.35zm-14.8 6.518c-5.369 0-7.769-2.637-7.769-4.619 0-1.012.75-1.725 1.781-1.725 2.3 0 1.7 3.3 5.988 3.3 2.194 0 3.406-1.194 3.406-2.413 0-.731-.363-1.544-1.806-1.9l-4.775-1.194c-3.844-.963-4.544-3.044-4.544-5 0-4.056 3.819-5.581 7.406-5.581 3.306 0 7.2 1.825 7.2 4.263 0 1.044-.906 1.65-1.938 1.65-1.962 0-1.6-2.713-5.55-2.713-1.963 0-3.044.887-3.044 2.156s1.55 1.675 2.894 1.981l3.538.787c3.869.863 4.85 3.125 4.85 5.25 0 3.294-2.531 5.756-7.637 5.756z"/></symbol><symbol id="icon-linkedin" viewBox="0 0 32 32"><path d="M29 0H3C1.35 0 0 1.35 0 3v26c0 1.65 1.35 3 3 3h26c1.65 0 3-1.35 3-3V3c0-1.65-1.35-3-3-3zM12 26H8V12h4v14zm-2-16c-1.106 0-2-.894-2-2s.894-2 2-2c1.106 0 2 .894 2 2s-.894 2-2 2zm16 16h-4v-8c0-1.106-.894-2-2-2s-2 .894-2 2v8h-4V12h4v2.481C18.825 13.35 20.087 12 21.5 12c2.488 0 4.5 2.238 4.5 5v9z"/></symbol><symbol id="icon-stackoverflow" viewBox="0 0 32 32"><path d="M32 20v12H0V20h4v8h24v-8zM6 22h20v4H6zm.473-4.329l.866-3.905 19.526 4.328-.866 3.905zm2.266-8.029l1.69-3.625 18.126 8.452-1.69 3.625zm22.252 1.654l-2.435 3.173L12.689 2.294 14.45 0h1.82z"/></symbol><symbol id="icon-download" viewBox="0 0 20 20"><path d="M15 7h-3V1H8v6H5l5 5 5-5zm4.338 6.532c-.21-.224-1.611-1.723-2.011-2.114A1.503 1.503 0 0016.285 11h-1.757l3.064 2.994h-3.544a.274.274 0 00-.24.133L12.992 16H7.008l-.816-1.873a.276.276 0 00-.24-.133H2.408L5.471 11H3.715c-.397 0-.776.159-1.042.418-.4.392-1.801 1.891-2.011 2.114-.489.521-.758.936-.63 1.449l.561 3.074c.128.514.691.936 1.252.936h16.312c.561 0 1.124-.422 1.252-.936l.561-3.074c.126-.513-.142-.928-.632-1.449z"/></symbol><symbol id="icon-open-book" viewBox="0 0 20 20"><path d="M10.595 5.196l.446 1.371a4.135 4.135 0 011.441-.795c.59-.192 1.111-.3 1.582-.362l-.43-1.323c-.476.069-1.001.18-1.58.368s-1.055.45-1.459.741zm.927 2.855l.446 1.371a4.135 4.135 0 011.441-.795c.59-.192 1.111-.3 1.582-.362l-.43-1.323a9.465 9.465 0 00-1.58.368 5.21 5.21 0 00-1.459.741zm.928 2.854l.446 1.371a4.135 4.135 0 011.441-.795c.59-.192 1.111-.3 1.582-.362l-.43-1.323a9.465 9.465 0 00-1.58.368 5.21 5.21 0 00-1.459.741zm-7.062 2.172l.43 1.323a8.745 8.745 0 011.492-.636 4.141 4.141 0 011.633-.203l-.446-1.371a5.25 5.25 0 00-1.615.257 9.406 9.406 0 00-1.494.63zM3.533 7.368l.43 1.323a8.825 8.825 0 011.492-.636 4.141 4.141 0 011.633-.203L6.643 6.48a5.263 5.263 0 00-1.616.258 9.406 9.406 0 00-1.494.63zm.927 2.855l.43 1.323a8.745 8.745 0 011.492-.636 4.141 4.141 0 011.633-.203L7.57 9.335a5.25 5.25 0 00-1.615.257 9.417 9.417 0 00-1.495.631zm6.604-8.813a5.26 5.26 0 00-3.053 2.559 5.257 5.257 0 00-3.973-.275C1.515 4.514.069 6.321.069 6.321l4.095 12.587c.126.387.646.477.878.143.499-.719 1.46-1.658 3.257-2.242 1.718-.558 2.969.054 3.655.578.272.208.662.06.762-.268.252-.827.907-2.04 2.61-2.593 1.799-.585 3.129-.389 3.956-.1.385.134.75-.242.625-.629L15.819 1.203s-2.232-.612-4.755.207zm-.113 13.846a5.208 5.208 0 00-3.141.044c-1.251.406-2.127.949-2.699 1.404L1.866 6.722c.358-.358 1.187-1.042 2.662-1.521 1.389-.451 2.528-.065 3.279.378l3.144 9.677zm6.894-2.689c-.731-.032-1.759.044-3.01.451a5.205 5.205 0 00-2.567 1.81L9.124 5.151c.346-.8 1.04-1.782 2.43-2.233 1.474-.479 2.547-.413 3.047-.334l3.244 9.983z"/></symbol><symbol id="icon-area-graph" viewBox="0 0 20 20"><path d="M20 2v16H.32c-.318 0-.416-.209-.216-.465l4.469-5.748a.526.526 0 01.789-.062l1.419 1.334a.473.473 0 00.747-.096l3.047-4.74a.466.466 0 01.741-.09l2.171 2.096c.232.225.559.18.724-.1l5.133-7.785C19.51 2.062 19.75 2 20 2z"/></symbol><symbol id="icon-bar-graph" viewBox="0 0 20 20"><path d="M17 1h-2a1 1 0 00-1 1v16.992h4V2a1 1 0 00-1-1zm-6 6H9a1 1 0 00-1 1v10.992h4V8a1 1 0 00-1-1zm-6 6H3a1 1 0 00-1 1v4.992h4V14a1 1 0 00-1-1z"/></symbol><symbol id="icon-globe" viewBox="0 0 20 20"><path d="M10 .4C4.705.4.399 4.707.399 10S4.705 19.6 10 19.6c5.293 0 9.6-4.307 9.6-9.6S15.293.4 10 .4zm8.188 9.6c0 1.873-.636 3.6-1.696 4.98-.3-.234-.619-.867-.319-1.523.303-.66.382-2.188.312-2.783-.066-.594-.375-2.025-1.214-2.039-.838-.012-1.413-.289-1.911-1.283-1.033-2.068 1.939-2.465.906-3.609-.289-.322-1.783 1.322-2.002-.869-.014-.157.135-.392.336-.636 3.244 1.09 5.588 4.157 5.588 7.762zM8.875 1.893c-.196.382-.713.537-1.027.824-.684.619-.978.533-1.346 1.127-.371.594-1.567 1.449-1.567 1.879s.604.936.906.838c.302-.1 1.099-.094 1.567.07.469.166 3.914.332 2.816 3.244-.348.926-1.873.77-2.279 2.303-.061.225-.272 1.186-.285 1.5-.025.486.344 2.318-.125 2.318-.471 0-1.738-1.639-1.738-1.936s-.328-1.338-.328-2.23c0-.891-1.518-.877-1.518-2.062 0-1.068.823-1.6.638-2.113-.181-.51-1.627-.527-2.23-.59a8.213 8.213 0 016.516-5.172zM7.424 17.77c.492-.26.542-.596.988-.613.51-.023.925-.199 1.5-.326.51-.111 1.423-.629 2.226-.695.678-.055 2.015.035 2.375.689a8.159 8.159 0 01-7.089.945z"/></symbol><symbol id="icon-home" viewBox="0 0 20 20"><path d="M18.672 11H17v6c0 .445-.194 1-1 1h-4v-6H8v6H4c-.806 0-1-.555-1-1v-6H1.328c-.598 0-.47-.324-.06-.748L9.292 2.22c.195-.202.451-.302.708-.312.257.01.513.109.708.312l8.023 8.031c.411.425.539.749-.059.749z"/></symbol><symbol id="icon-location-pin" viewBox="0 0 20 20"><path d="M10 2.009c-2.762 0-5 2.229-5 4.99 0 4.774 5 11 5 11s5-6.227 5-11c0-2.76-2.238-4.99-5-4.99zm0 7.751a2.7 2.7 0 110-5.4 2.7 2.7 0 010 5.4z"/></symbol><symbol id="icon-mail" viewBox="0 0 20 20"><path d="M1.574 5.286l7.5 4.029c.252.135.578.199.906.199.328 0 .654-.064.906-.199l7.5-4.029c.489-.263.951-1.286.054-1.286H1.521c-.897 0-.435 1.023.053 1.286zm17.039 2.203l-7.727 4.027c-.34.178-.578.199-.906.199s-.566-.021-.906-.199-7.133-3.739-7.688-4.028C.996 7.284 1 7.523 1 7.707V15c0 .42.566 1 1 1h16c.434 0 1-.58 1-1V7.708c0-.184.004-.423-.387-.219z"/></symbol><symbol id="icon-phone" viewBox="0 0 20 20"><path d="M11.229 11.229c-1.583 1.582-3.417 3.096-4.142 2.371-1.037-1.037-1.677-1.941-3.965-.102-2.287 1.838-.53 3.064.475 4.068 1.16 1.16 5.484.062 9.758-4.211 4.273-4.274 5.368-8.598 4.207-9.758-1.005-1.006-2.225-2.762-4.063-.475s-.936 2.927.103 3.965c.722.725-.791 2.559-2.373 4.142z"/></symbol><symbol id="icon-user" viewBox="0 0 20 20"><path d="M7.725 2.146c-1.016.756-1.289 1.953-1.239 2.59.064.779.222 1.793.222 1.793s-.313.17-.313.854c.109 1.717.683.976.801 1.729.284 1.814.933 1.491.933 2.481 0 1.649-.68 2.42-2.803 3.334C3.196 15.845 1 17 1 19v1h18v-1c0-2-2.197-3.155-4.328-4.072-2.123-.914-2.801-1.684-2.801-3.334 0-.99.647-.667.932-2.481.119-.753.692-.012.803-1.729 0-.684-.314-.854-.314-.854s.158-1.014.221-1.793c.065-.817-.398-2.561-2.3-3.096-.333-.34-.558-.881.466-1.424-2.24-.105-2.761 1.067-3.954 1.929z"/></symbol></defs></svg>