<svg aria-hidden="true" style="position:absolute;width:0;height:0" xmlns="http://www.w3.org/2000/svg" overflow="hidden"><defs><symbol id="open-book" viewBox="0 0 20 20"><path d="M10.595 5.196l.446 1.371a4.135 4.135 0 011.441-.795c.59-.192 1.111-.3 1.582-.362l-.43-1.323c-.476.069-1.001.18-1.58.368s-1.055.45-1.459.741zm.927 2.855l.446 1.371a4.135 4.135 0 011.441-.795c.59-.192 1.111-.3 1.582-.362l-.43-1.323a9.465 9.465 0 00-1.58.368 5.21 5.21 0 00-1.459.741zm.928 2.854l.446 1.371a4.135 4.135 0 011.441-.795c.59-.192 1.111-.3 1.582-.362l-.43-1.323a9.465 9.465 0 00-1.58.368 5.21 5.21 0 00-1.459.741zm-7.062 2.172l.43 1.323a8.745 8.745 0 011.492-.636 4.141 4.141 0 011.633-.203l-.446-1.371a5.25 5.25 0 00-1.615.257 9.406 9.406 0 00-1.494.63zM3.533 7.368l.43 1.323a8.825 8.825 0 011.492-.636 4.141 4.141 0 011.633-.203L6.643 6.48a5.263 5.263 0 00-1.616.258 9.406 9.406 0 00-1.494.63zm.927 2.855l.43 1.323a8.745 8.745 0 011.492-.636 4.141 4.141 0 011.633-.203L7.57 9.335a5.25 5.25 0 00-1.615.257 9.417 9.417 0 00-1.495.631zm6.604-8.813a5.26 5.26 0 00-3.053 2.559 5.257 5.257 0 00-3.973-.275C1.515 4.514.069 6.321.069 6.321l4.095 12.587c.126.387.646.477.878.143.499-.719 1.46-1.658 3.257-2.242 1.718-.558 2.969.054 3.655.578.272.208.662.06.762-.268.252-.827.907-2.04 2.61-2.593 1.799-.585 3.129-.389 3.956-.1.385.134.75-.242.625-.629L15.819 1.203s-2.232-.612-4.755.207zm-.113 13.846a5.208 5.208 0 00-3.141.044c-1.251.406-2.127.949-2.699 1.404L1.866 6.722c.358-.358 1.187-1.042 2.662-1.521 1.389-.451 2.528-.065 3.279.378l3.144 9.677zm6.894-2.689c-.731-.032-1.759.044-3.01.451a5.205 5.205 0 00-2.567 1.81L9.124 5.151c.346-.8 1.04-1.782 2.43-2.233 1.474-.479 2.547-.413 3.047-.334l3.244 9.983z"/></symbol><symbol id="area-graph" viewBox="0 0 20 20"><path d="M20 2v16H.32c-.318 0-.416-.209-.216-.465l4.469-5.748a.526.526 0 01.789-.062l1.419 1.334a.473.473 0 00.747-.096l3.047-4.74a.466.466 0 01.741-.09l2.171 2.096c.232.225.559.18.724-.1l5.133-7.785C19.51 2.062 19.75 2 20 2z"/></symbol><symbol id="twitter" viewBox="0 0 20 20"><path d="M20 4.422a8.103 8.103 0 01-2.355.645 4.129 4.129 0 001.805-2.27 8.258 8.258 0 01-2.605.996A4.102 4.102 0 0013.849 2.5a4.101 4.101 0 00-4.102 4.102c0 .32.035.633.105.934a11.647 11.647 0 01-8.457-4.289A4.098 4.098 0 00.84 5.309c0 1.422.723 2.68 1.824 3.414a4.105 4.105 0 01-1.859-.512v.051a4.103 4.103 0 003.293 4.023 4.101 4.101 0 01-1.855.071 4.117 4.117 0 003.832 2.852 8.227 8.227 0 01-6.078 1.699 11.606 11.606 0 006.293 1.844c7.547 0 11.676-6.254 11.676-11.676 0-.18-.004-.355-.012-.531a8.26 8.26 0 002.047-2.121z"/></symbol><symbol id="github" viewBox="0 0 20 20"><path d="M10 .247c-5.522 0-10 4.477-10 10 0 4.418 2.865 8.167 6.839 9.489.5.093.683-.217.683-.481 0-.238-.009-1.026-.014-1.862-2.782.605-3.369-1.18-3.369-1.18-.455-1.156-1.11-1.463-1.11-1.463-.907-.621.069-.608.069-.608 1.004.071 1.533 1.031 1.533 1.031.892 1.529 2.339 1.087 2.91.831.09-.646.349-1.087.635-1.337-2.221-.253-4.556-1.11-4.556-4.942 0-1.092.391-1.984 1.03-2.684-.104-.252-.446-1.269.097-2.646 0 0 .84-.269 2.751 1.025a9.576 9.576 0 012.503-.337c.85.004 1.706.115 2.505.337 1.909-1.294 2.747-1.025 2.747-1.025.544 1.378.202 2.395.098 2.646.641.7 1.029 1.592 1.029 2.684 0 3.841-2.339 4.687-4.566 4.934.359.31.678.919.678 1.852 0 1.338-.012 2.415-.012 2.744 0 .266.18.578.687.48A10.002 10.002 0 0020 10.247c0-5.523-4.477-10-10-10z"/></symbol><symbol id="skype" viewBox="0 0 20 20"><path d="M8.313.73C8.282.71 8.247.695 8.215.679c-.035.008-.066.012-.102.02l.199.031zM.719 8.223c-.008.035-.012.07-.016.102.02.031.031.063.051.094l-.035-.195zM19.273 11.77c.008-.035.012-.07.02-.105-.02-.031-.031-.063-.051-.094l.031.199zM11.563 19.199c.031.02.066.035.098.051.035-.008.07-.012.105-.016l-.203-.035z"/><path d="M19.293 11.664c-.008.035-.012.07-.02.105l-.035-.203c.02.035.035.066.055.098a9.603 9.603 0 00.156-1.711 9.438 9.438 0 00-2.765-6.68A9.395 9.395 0 0010.008.508c-.602 0-1.203.055-1.789.168h-.004c.031.016.066.031.098.051L8.114.696c.035-.008.066-.012.102-.02A5.616 5.616 0 005.595.02c-1.492 0-2.898.582-3.953 1.637S.005 4.118.005 5.61c0 .949.246 1.887.703 2.711.008-.035.012-.07.016-.102l.035.199c-.02-.031-.035-.063-.051-.094a9.43 9.43 0 00-.141 1.629 9.399 9.399 0 002.765 6.676 9.422 9.422 0 008.332 2.617.755.755 0 00-.098-.051l.203.035c-.035.008-.07.012-.105.016a5.593 5.593 0 002.75.727c1.492 0 2.898-.582 3.953-1.637s1.637-2.461 1.637-3.953a5.67 5.67 0 00-.711-2.719zm-9.25 4.074c-3.355 0-4.855-1.648-4.855-2.887 0-.633.469-1.078 1.113-1.078 1.438 0 1.063 2.063 3.742 2.063 1.371 0 2.129-.746 2.129-1.508 0-.457-.227-.965-1.129-1.187l-2.984-.746c-2.402-.602-2.84-1.902-2.84-3.125 0-2.535 2.387-3.488 4.629-3.488 2.066 0 4.5 1.141 4.5 2.664 0 .652-.566 1.031-1.211 1.031-1.227 0-1-1.695-3.469-1.695-1.227 0-1.902.555-1.902 1.348s.969 1.047 1.809 1.238l2.211.492c2.418.539 3.031 1.953 3.031 3.281 0 2.059-1.582 3.598-4.773 3.598z"/></symbol><symbol id="linkedin" viewBox="0 0 20 20"><path d="M18.125 0H1.875A1.88 1.88 0 000 1.875v16.25A1.88 1.88 0 001.875 20h16.25A1.88 1.88 0 0020 18.125V1.875A1.88 1.88 0 0018.125 0zM7.5 16.25H5V7.5h2.5v8.75zm-1.25-10a1.25 1.25 0 11-.002-2.498A1.25 1.25 0 016.25 6.25zm10 10h-2.5v-5a1.25 1.25 0 10-2.5 0v5h-2.5V7.5h2.5v1.551c.516-.707 1.305-1.551 2.188-1.551 1.555 0 2.813 1.398 2.813 3.125v5.625z"/></symbol><symbol id="stackoverflow" viewBox="0 0 20 20"><path d="M20 12.5V20H0v-7.5h2.5v5h15v-5zM3.75 13.75h12.5v2.5H3.75zm.296-2.706l.541-2.441 12.204 2.705-.541 2.441zm1.416-5.017l1.056-2.266 11.329 5.282-1.056 2.266zM19.37 7.06l-1.522 1.983-9.917-7.61 1.1-1.434h1.138z"/></symbol><symbol id="download" viewBox="0 0 20 20"><path d="M15 7h-3V1H8v6H5l5 5 5-5zm4.338 6.532c-.21-.224-1.611-1.723-2.011-2.114A1.503 1.503 0 0016.285 11h-1.757l3.064 2.994h-3.544a.274.274 0 00-.24.133L12.992 16H7.008l-.816-1.873a.276.276 0 00-.24-.133H2.408L5.471 11H3.715c-.397 0-.776.159-1.042.418-.4.392-1.801 1.891-2.011 2.114-.489.521-.758.936-.63 1.449l.561 3.074c.128.514.691.936 1.252.936h16.312c.561 0 1.124-.422 1.252-.936l.561-3.074c.126-.513-.142-.928-.632-1.449z"/></symbol><symbol id="facebook" viewBox="0 0 20 20"><path d="M18.125 0H1.875A1.88 1.88 0 000 1.875v16.25A1.88 1.88 0 001.875 20H10v-8.75H7.5v-2.5H10V7.5a3.757 3.757 0 013.75-3.75h2.5v2.5h-2.5c-.688 0-1.25.563-1.25 1.25v1.25h3.75l-.625 2.5H12.5V20h5.625A1.88 1.88 0 0020 18.125V1.875A1.88 1.88 0 0018.125 0z"/></symbol><symbol id="bar-graph" viewBox="0 0 20 20"><path d="M17 1h-2a1 1 0 00-1 1v16.992h4V2a1 1 0 00-1-1zm-6 6H9a1 1 0 00-1 1v10.992h4V8a1 1 0 00-1-1zm-6 6H3a1 1 0 00-1 1v4.992h4V14a1 1 0 00-1-1z"/></symbol><symbol id="globe" viewBox="0 0 20 20"><path d="M10 .4C4.705.4.399 4.707.399 10S4.705 19.6 10 19.6c5.293 0 9.6-4.307 9.6-9.6S15.293.4 10 .4zm8.188 9.6c0 1.873-.636 3.6-1.696 4.98-.3-.234-.619-.867-.319-1.523.303-.66.382-2.188.312-2.783-.066-.594-.375-2.025-1.214-2.039-.838-.012-1.413-.289-1.911-1.283-1.033-2.068 1.939-2.465.906-3.609-.289-.322-1.783 1.322-2.002-.869-.014-.157.135-.392.336-.636 3.244 1.09 5.588 4.157 5.588 7.762zM8.875 1.893c-.196.382-.713.537-1.027.824-.684.619-.978.533-1.346 1.127-.371.594-1.567 1.449-1.567 1.879s.604.936.906.838c.302-.1 1.099-.094 1.567.07.469.166 3.914.332 2.816 3.244-.348.926-1.873.77-2.279 2.303-.061.225-.272 1.186-.285 1.5-.025.486.344 2.318-.125 2.318-.471 0-1.738-1.639-1.738-1.936s-.328-1.338-.328-2.23c0-.891-1.518-.877-1.518-2.062 0-1.068.823-1.6.638-2.113-.181-.51-1.627-.527-2.23-.59a8.213 8.213 0 016.516-5.172zM7.424 17.77c.492-.26.542-.596.988-.613.51-.023.925-.199 1.5-.326.51-.111 1.423-.629 2.226-.695.678-.055 2.015.035 2.375.689a8.159 8.159 0 01-7.089.945z"/></symbol><symbol id="home" viewBox="0 0 20 20"><path d="M18.672 11H17v6c0 .445-.194 1-1 1h-4v-6H8v6H4c-.806 0-1-.555-1-1v-6H1.328c-.598 0-.47-.324-.06-.748L9.292 2.22c.195-.202.451-.302.708-.312.257.01.513.109.708.312l8.023 8.031c.411.425.539.749-.059.749z"/></symbol><symbol id="location-pin" viewBox="0 0 20 20"><path d="M10 2.009c-2.762 0-5 2.229-5 4.99 0 4.774 5 11 5 11s5-6.227 5-11c0-2.76-2.238-4.99-5-4.99zm0 7.751a2.7 2.7 0 110-5.4 2.7 2.7 0 010 5.4z"/></symbol><symbol id="mail" viewBox="0 0 20 20"><path d="M1.574 5.286l7.5 4.029c.252.135.578.199.906.199.328 0 .654-.064.906-.199l7.5-4.029c.489-.263.951-1.286.054-1.286H1.521c-.897 0-.435 1.023.053 1.286zm17.039 2.203l-7.727 4.027c-.34.178-.578.199-.906.199s-.566-.021-.906-.199-7.133-3.739-7.688-4.028C.996 7.284 1 7.523 1 7.707V15c0 .42.566 1 1 1h16c.434 0 1-.58 1-1V7.708c0-.184.004-.423-.387-.219z"/></symbol><symbol id="phone" viewBox="0 0 20 20"><path d="M11.229 11.229c-1.583 1.582-3.417 3.096-4.142 2.371-1.037-1.037-1.677-1.941-3.965-.102-2.287 1.838-.53 3.064.475 4.068 1.16 1.16 5.484.062 9.758-4.211 4.273-4.274 5.368-8.598 4.207-9.758-1.005-1.006-2.225-2.762-4.063-.475s-.936 2.927.103 3.965c.722.725-.791 2.559-2.373 4.142z"/></symbol><symbol id="user" viewBox="0 0 20 20"><path d="M7.725 2.146c-1.016.756-1.289 1.953-1.239 2.59.064.779.222 1.793.222 1.793s-.313.17-.313.854c.109 1.717.683.976.801 1.729.284 1.814.933 1.491.933 2.481 0 1.649-.68 2.42-2.803 3.334C3.196 15.845 1 17 1 19v1h18v-1c0-2-2.197-3.155-4.328-4.072-2.123-.914-2.801-1.684-2.801-3.334 0-.99.647-.667.932-2.481.119-.753.692-.012.803-1.729 0-.684-.314-.854-.314-.854s.158-1.014.221-1.793c.065-.817-.398-2.561-2.3-3.096-.333-.34-.558-.881.466-1.424-2.24-.105-2.761 1.067-3.954 1.929z"/></symbol></defs></svg>